/* XPM */
static char *cf9a8fcdd5b84ee192f20c734b31ab819aIl0JTGh8sa6Dv8[] = {
/* columns rows colors chars-per-pixel */
"100 100 10 1 ",
"  c #231C19",
". c #352B26",
"X c #14462D",
"o c #0A7030",
"O c #997D57",
"+ c #03991F",
"@ c #4DBD27",
"# c #95D836",
"$ c #C3AA83",
"% c #E2CFA4",
/* pixels */
"....................................................................................................",
"....................................................................................................",
"....................................................................................................",
"....................................................................................................",
"....................................................................................................",
"....................................................................................................",
"............%%%%%%%%%%%%%%%%%%%%%%%%%%%%%%%%%%%%%%%%%%%%%%%%%%%%%%%%%%%%%%%%%%%%%%%%%%%%............",
"............%%%%%%%%%%%%%%%%%%%%%%%%%%%%%%%%%%%%%%%%%%%%%%%%%%%%%%%%%%%%%%%%%%%%%%%%%%%%............",
"............%%%%%%%%%%%%%%%%%%%%%%%%%%%%%%%%%%%%%%%%%%%%%%%%%%%%%%%%%%%%%%%%%%%%%%%%%%%%............",
"............%%%%%%%%%%%%%%%%%%%%%%%%%%%%%%%%%%%%%%%%%%%%%%%%%%%%%%%%%%%%%%%%%%%%%%%%%%%%............",
"............%%%%%%%%%%%%%%%%%%%%%%%%%%%%%%%%%%%%%%%%%%%%%%%%%%%%%%%%%%%%%%%%%%%%%%%%%%%%............",
"............%%%%%%%%%%%%%%%%%%%%%%%%%%%%%%%%%%%%%%%%%%%%%%%%%%%%%%%%%%%%%%%%%%%%%%%%%%%%............",
"......%%%%%%%%%%%%%%%%%%$$            %%%%%%%%%%%$$$$$$$$$$$$$$$$$$$$$$$$$$%%%%%%%%%%%%%%%%%%%......",
"......%%%%%%%%%%%%%%%%%%$$            %%%%%%%%%%%$$$$$$$$$$$$$$$$$$$$$$$$$$%%%%%%%%%%%%%%%%%%%......",
"......%%%%%%%%%%%%%%%%%%$$            %%%%%%%%%%%$$$$$$$$$$$$$$$$$$$$$$$$$$%%%%%%%%%%%%%%%%%%%......",
"......%%%%%%%%%%%%%%%%%%$$            %%%%%%%%%%%$$$$$$$$$$$$$$$$$$$$$$$$$$%%%%%%%%%%%%%%%%%%%......",
"......%%%%%%%%%%%%%%%%%%$$            %%%%%%%%%%%$$$$$$$$$$$$$$$$$$$$$$$$$$%%%%%%%%%%%%%%%%%%%......",
"......%%%%%%%%%%%%%%%%%%$$            %%%%%%%%%%%$$$$$$$$$$$$$$$$$$$$$$$$$$%%%%%%%%%%%%%%%%%%%......",
"......%%%%%%%%%%%%$$      ++++++++++++      %%%%%$$$$$$$$$$$$$$$$$$$$$$$$$$$$$$$$$%%%%%%%%%%%%......",
"......%%%%%%%%%%%%$$      ++++++++++++      %%%%%$$$$$$$$$$$$$$$$$$$$$$$$$$$$$$$$$%%%%%%%%%%%%......",
"......%%%%%%%%%%%%$$      ++++++++++++      %%%%%$$$$$$$$$$$$$$$$$$$$$$$$$$$$$$$$$%%%%%%%%%%%%......",
"......%%%%%%%%%%%%$$      ++++++++++++      %%%%%$$$$$$$$$$$$$$$$$$$$$$$$$$$$$$$$$%%%%%%%%%%%%......",
"......%%%%%%%%%%%%$$      ++++++++++++      %%%%%$$$$$$$$$$$$$$$$$$$$$$$$$$$$$$$$$%%%%%%%%%%%%......",
"......%%%%%%%%%%%%$$      ++++++++++++      %%%%%$$$$$$$$$$$$$$$$$$$$$$$$$$$$$$$$$%%%%%%%%%%%%......",
"......%%%%%%$$      ++++++oooooooooooooooooo     $$$$$$                  $$$$$$$$$$$$$$$%%%%%%......",
"......%%%%%%$$      ++++++oooooooooooooooooo     $$$$$$                  $$$$$$$$$$$$$$$%%%%%%......",
"......%%%%%%$$      ++++++oooooooooooooooooo     $$$$$$                  $$$$$$$$$$$$$$$%%%%%%......",
"......%%%%%%$$      ++++++oooooooooooooooooo     $$$$$$                  $$$$$$$$$$$$$$$%%%%%%......",
"......%%%%%%$$      ++++++oooooooooooooooooo     $$$$$$                  $$$$$$$$$$$$$$$%%%%%%......",
"......%%%%%%$$      ++++++oooooooooooooooooo     $$$$$$                  $$$$$$$$$$$$$$$%%%%%%......",
"......%%%%%%$$$$$$$$                                   ooooooooooooXXXXXX      $$$$$$$$$%%%%%%......",
"......%%%%%%$$$$$$%%                                   ooooooooooooXXXXXX      $$$$$$$$$%%%%%%......",
"......%%%%%%$$$$$$%%                                   ooooooooooooXXXXXX      $$$$$$$$$%%%%%%......",
"......%%%%%%$$$$$$%%                                   ooooooooooooXXXXXX      $$$$$$$$$%%%%%%......",
"......%%%%%%$$$$$$%%                                   ooooooooooooXXXXXX      $$$$$$$$$%%%%%%......",
"......%%%%%%$$$$$$%%                                   ooooooooooooXXXXXX      $$$$$$$$$%%%%%%......",
"......%%%%%%$$$$$$%%%%%%$$$$$$$$$$$$$$                                   $$$$$$$$$$$$$$$%%%%%%......",
"......%%%%%%$$$$$$$$$$$$$$$$$$$$$$$$$$                                   $$$$$$$$$$$$$$$%%%%%%......",
"......%%%%%%$$$$$$$$$$$$$$$$$$$$$$$$$$                                   $$$$$$$$$$$$$$$%%%%%%......",
"......%%%%%%$$$$$$$$$$$$$$$$$$$$$$$$$$                                   $$$$$$$$$$$$$$$%%%%%%......",
"......%%%%%%$$$$$$$$$$$$$$$$$$$$$$$$$$                                   $$$$$$$$$$$$$$$%%%%%%......",
"......%%%%%%$$$$$$$$$$$$$$$$$$$$$$$$$$                                   $$$$$$$$$$$$$$$%%%%%%......",
"......%%%%%%$$$$$$$$$$$$$$$$$$$$      ######+++++++++++######      $$$$$$$$$$$$$$$$$$$$$%%%%%%......",
"......%%%%%%$$$$$$$$$$$$OOOOOOOO      ######+++++++++++######      $$$$$$$$%%%%%%%$$$$$$%%%%%%......",
"......%%%%%%$$$$$$$$$$$$OOOOOOOO      ######+++++++++++######      $$$$$$$$%%%%%%%$$$$$$%%%%%%......",
"......%%%%%%$$$$$$$$$$$$OOOOOOOO      ######+++++++++++######      $$$$$$$$%%%%%%%$$$$$$%%%%%%......",
"......%%%%%%$$$$$$$$$$$$OOOOOOOO      ######+++++++++++######      $$$$$$$$%%%%%%%$$$$$$%%%%%%......",
"......%%%%%%$$$$$$$$$$$$OOOOOOOO      ######+++++++++++######      $$$$$$$$%%%%%%%$$$$$$%%%%%%......",
"......%%%%%%$$$$$$$$$$$$OO      ######@@@@@@###########@@@@@@######      $$%%%%%%%$$$$$$%%%%%%......",
"......%%%%%%$$$$$$$$$$$$OO      ######@@@@@@###########@@@@@@######      $$%%%%%%%$$$$$$%%%%%%......",
"......OOOOOO$$$$$$$$$$$$OO      ######@@@@@@###########@@@@@@######      $$$$$$$$$$$$$$$OOOOOO......",
"......OOOOOO$$$$$$$$$$$$OO      ######@@@@@@###########@@@@@@######      $$$$$$$$$$$$$$$OOOOOO......",
"......OOOOOO$$$$$$$$$$$$OO      ######@@@@@@###########@@@@@@######      $$$$$$$$$$$$$$$OOOOOO......",
"......OOOOOO$$$$$$$$      ######@@@@@@@@@@@@###########@@@@@@@@@@@@######      $$$$$$$$$OOOOOO......",
"......OOOOOO$$$$$$$$      ######@@@@@@@@@@@@###########@@@@@@@@@@@@######      $$$$$$$$$OOOOOO......",
"......OOOOOO$$$$$$$$      ######@@@@@@@@@@@@###########@@@@@@@@@@@@######      $$$$$$$$$OOOOOO......",
"......OOOOOO$$$$$$$$      ######@@@@@@@@@@@@###########@@@@@@@@@@@@######      $$$$$$$$$OOOOOO......",
"......OOOOOO$$$$$$$$      ######@@@@@@@@@@@@###########@@@@@@@@@@@@######      $$$$$$$$$OOOOOO......",
"......OOOOOO$$$$$$$$      ######@@@@@@@@@@@@###########@@@@@@@@@@@@######      $$$$$$$$$OOOOOO......",
"......OOOOOO$$$$$$$$      ############@@@@@@@@@@@@@@@@@++++++@@@@@@######      $$$$$$$$$OOOOOO......",
"......OOOOOO$$$$$$$$      ############@@@@@@@@@@@@@@@@@++++++@@@@@@######      $$$$$$$$$OOOOOO......",
"......OOOOOO$$$$$$$$      ############@@@@@@@@@@@@@@@@@++++++@@@@@@######      $$$$$$$$$OOOOOO......",
"......OOOOOO$$$$$$$$      ############@@@@@@@@@@@@@@@@@++++++@@@@@@######      $$$$$$$$$OOOOOO......",
"......OOOOOO$$$$$$OO      ############@@@@@@@@@@@@@@@@@++++++@@@@@@######      $$$OOOOOOOOOOOO......",
"......OOOOOO$$$$$$OO      ############@@@@@@@@@@@@@@@@@++++++@@@@@@######      $$$OOOOOOOOOOOO......",
"......OOOOOO$$$$$$OO      ++++++@@@@@@+++++++++++@@@@@@@@@@@@@@@@@@++++++      $$$OOOOOOOOOOOO......",
"......OOOOOO$$$$$$OO      ++++++@@@@@@+++++++++++@@@@@@@@@@@@@@@@@@++++++      $$$OOOOOOOOOOOO......",
"......OOOOOO$$$$$$OO      ++++++@@@@@@+++++++++++@@@@@@@@@@@@@@@@@@++++++      $$$OOOOOOOOOOOO......",
"......OOOOOO$$$$$$OO      ++++++@@@@@@+++++++++++@@@@@@@@@@@@@@@@@@++++++      $$$OOOOOOOOOOOO......",
"......OOOOOO$$$$$$$$      ++++++@@@@@@+++++++++++@@@@@@@@@@@@@@@@@@++++++      $$$$$$$$$OOOOOO......",
"......OOOOOO$$$$$$$$      ++++++@@@@@@+++++++++++@@@@@@@@@@@@@@@@@@++++++      $$$$$$$$$OOOOOO......",
"......OOOOOO$$$$$$$$$$$$$$      +++++++++++++++++@@@@@@@@@@@@++++++      $$$$$$$$$$$$$$$OOOOOO......",
"......OOOOOO$$$$$$$$$$$$$$      +++++++++++++++++@@@@@@@@@@@@++++++      $$$$$$$$$$$$$$$OOOOOO......",
"......OOOOOO$$$$$$$$$$$$$$      +++++++++++++++++@@@@@@@@@@@@++++++      $$$$$$$$$$$$$$$OOOOOO......",
"......OOOOOO$$$$$$$$$$$$$$      +++++++++++++++++@@@@@@@@@@@@++++++      $$$$$$$$$$$$$$$OOOOOO......",
"......OOOOOO$$$$$$$$$$$$OO      +++++++++++++++++@@@@@@@@@@@@++++++      $$OOOOOOO$$$$$$OOOOOO......",
"......OOOOOO$$$$$$$$$$$$OO      +++++++++++++++++@@@@@@@@@@@@++++++      $$OOOOOOO$$$$$$OOOOOO......",
"......OOOOOO$$$$$$$$$$$$OOOOOOOO      +++++++++++++++++++++++      OO$$$$$$OOOOOOO$$$$$$OOOOOO......",
"......OOOOOO$$$$$$$$$$$$OOOOOOOO      +++++++++++++++++++++++      OO$$$$$$OOOOOOO$$$$$$OOOOOO......",
"......OOOOOO$$$$$$$$$$$$OOOOOOOO      +++++++++++++++++++++++      OO$$$$$$OOOOOOO$$$$$$OOOOOO......",
"......OOOOOO$$$$$$$$$$$$OOOOOOOO      +++++++++++++++++++++++      OO$$$$$$OOOOOOO$$$$$$OOOOOO......",
"......OOOOOO$$$$$$$$$$$$OOOOOOOO      +++++++++++++++++++++++      OO$$$$$$OOOOOOO$$$$$$OOOOOO......",
"......OOOOOO$$$$$$$$$$$$OOOOOOOO      +++++++++++++++++++++++      $$$$$$$$$$$$$$$$$$$$$OOOOOO......",
"......OOOOOO$$$$$$$$$$$$OOOOOOOOOOOOO$                       $$$$$$$$$$$$$$$$$$$$$$$$$$$OOOOOO......",
"......OOOOOO$$$$$$$$$$$$OOOOOOOOOOOOO$                       $$$$$$$$$$$$$$$$$$$$$$$$$$$OOOOOO......",
"......OOOOOO$$$$$$$$$$$$OOOOOOOOOOOOO$                       $$$$$$$$$$$$$$$$$$$$$$$$$$$OOOOOO......",
"......OOOOOO$$$$$$$$$$$$OOOOOOOOOOOOO$                       $$$$$$$$$$$$$$$$$$$$$$$$$$$OOOOOO......",
"......OOOOOO$$$$$$$$$$$$OOOOOOOOOOOOO$                       $$$$$$$$$$$$$$$$$$$$$$$$$$$OOOOOO......",
"............OOOOOOOOOOOOOOOOOOOOOOOOOO                       OOOOOOOOOOOOOOOOOOOOOOOOOOO............",
"............OOOOOOOOOOOOOOOOOOOOOOOOOOOOOOOOOOOOOOOOOOOOOOOOOOOOOOOOOOOOOOOOOOOOOOOOOOOO............",
"............OOOOOOOOOOOOOOOOOOOOOOOOOOOOOOOOOOOOOOOOOOOOOOOOOOOOOOOOOOOOOOOOOOOOOOOOOOOO............",
"............OOOOOOOOOOOOOOOOOOOOOOOOOOOOOOOOOOOOOOOOOOOOOOOOOOOOOOOOOOOOOOOOOOOOOOOOOOOO............",
"............OOOOOOOOOOOOOOOOOOOOOOOOOOOOOOOOOOOOOOOOOOOOOOOOOOOOOOOOOOOOOOOOOOOOOOOOOOOO............",
"............OOOOOOOOOOOOOOOOOOOOOOOOOOOOOOOOOOOOOOOOOOOOOOOOOOOOOOOOOOOOOOOOOOOOOOOOOOOO............",
"....................................................................................................",
"....................................................................................................",
"....................................................................................................",
"....................................................................................................",
"....................................................................................................",
"...................................................................................................."
};
