/* XPM */
static char *ebe9142970c04f018116f3c2597fad8cO35MReYKkSKfCAXg[] = {
/* columns rows colors chars-per-pixel */
"100 100 6 1 ",
"  c #3A3A50",
". c #B5754D",
"X c #C78C59",
"o c #E0B870",
"O c #A79796",
"+ c #F1CE8E",
/* pixels */
"oooooooooooooooooo           oooooooooooooooooooooooooooooooooooooooo             oooooooooooooooooo",
"oooooooooooooooooo           oooooooooooooooooooooooooooooooooooooooo             oooooooooooooooooo",
"oooooooooooooooooo           oooooooooooooooooooooooooooooooooooooooo             oooooooooooooooooo",
"oooooooooooooooooo           oooooooooooooooooooooooooooooooooooooooo             oooooooooooooooooo",
"oooooooooooooooooo   ++++++++                                        ++++oooo     oooooooooooooooooo",
"oooooooooooooooooo   ++++++++                                        ++++oooo     oooooooooooooooooo",
"oooooooooooooooooo   ++++++++                                        ++++oooo     oooooooooooooooooo",
"oooooooooooooooooo   ++++++++                                        ++++oooo     oooooooooooooooooo",
"oooooooooooooooooo   ++++ooooXXXXooooXXXXooooXXXXooooooooooooooooXXXXoooooooo     oooooooooooooooooo",
"oooooooooooooooooo   ++++ooooXXXXooooXXXXooooXXXXooooooooooooooooXXXXoooooooo     oooooooooooooooooo",
"oooooooooooooooooo   ++++ooooXXXXooooXXXXooooXXXXooooooooooooooooXXXXoooooooo     oooooooooooooooooo",
"oooooooooooooooooo   ++++ooooXXXXooooXXXXooooXXXXooooooooooooooooXXXXoooooooo     oooooooooooooooooo",
"oooooooooooooooooo   XXXXXXXX....XXXXooooXXXXooooXXXXoooooooooooo....XXXXXXXX     oooooooooooooooooo",
"oooooooooooooooooo   XXXXXXXX....XXXXooooXXXXooooXXXXoooooooooooo....XXXXXXXX     oooooooooooooooooo",
"oooooooooooooooooo   XXXXXXXX....XXXXooooXXXXooooXXXXoooooooooooo....XXXXXXXX     oooooooooooooooooo",
"oooooooooooooooooo   XXXXXXXX....XXXXooooXXXXooooXXXXoooooooooooo....XXXXXXXX     oooooooooooooooooo",
"oooooooooooooooooo   XXXXXXXX........................................XXXXXXXX     oooooooooooooooooo",
"oooooooooooooooooo   XXXXXXXX........................................XXXXXXXX     oooooooooooooooooo",
"oooooooooooooooooo   XXXXXXXX........................................XXXXXXXX     oooooooooooooooooo",
"oooooooooooooooooo   XXXXXXXX........................................XXXXXXXX     oooooooooooooooooo",
"oooooooooooooooooo   XXXXXXXX....        ....        ....        ....XXXXXXXX     oooooooooooooooooo",
"oooooooooooooooooo   XXXXXXXX....        ....        ....        ....XXXXXXXX     oooooooooooooooooo",
"oooooooooooooooooo   XXXXXXXX....        ....        ....        ....XXXXXXXX     oooooooooooooooooo",
"oooooooooooooooooo   XXXXXXXX....        ....        ....        ....XXXXXXXX     oooooooooooooooooo",
"oooooooooooooooooo   XXXXXXXX....        ....        ....        ....XXXXXXXX     oooooooooooooooooo",
"oooooooooooooooooo   XXXXXXXX....        ....        ....        ....XXXXXXXX     oooooooooooooooooo",
"oooooooooooooooooo   XXXXXXXX....        ....        ....        ....XXXXXXXX     oooooooooooooooooo",
"oooooooooooooooooo   XXXXXXXX....        ....        ....        ....XXXXXXXX     oooooooooooooooooo",
"oooooooooooooooooo   XXXXXXXX........................................XXXXXXXX     oooooooooooooooooo",
"oooooooooooooooooo   XXXXXXXX........................................XXXXXXXX     oooooooooooooooooo",
"oooooooooooooooooo   XXXXXXXX........................................XXXXXXXX     oooooooooooooooooo",
"oooooooooooooooooo   XXXXXXXX........................................XXXXXXXX     oooooooooooooooooo",
"oooooooooooooooooo   XXXXXXXX....        ....        ....        ....XXXXXXXX     oooooooooooooooooo",
"oooooooooooooooooo   XXXXXXXX....        ....        ....        ....XXXXXXXX     oooooooooooooooooo",
"oooooooooooooooooo   XXXXXXXX....        ....        ....        ....XXXXXXXX     oooooooooooooooooo",
"oooooooooooooooooo   XXXXXXXX....        ....        ....        ....XXXXXXXX     oooooooooooooooooo",
"oooooooooooooooooo   XXXXXXXX....        ....        ....        ....XXXXXXXX     oooooooooooooooooo",
"oooooooooooooooooo   XXXXXXXX....        ....        ....        ....XXXXXXXX     oooooooooooooooooo",
"oooooooooooooooooo   XXXXXXXX....        ....        ....        ....XXXXXXXX     oooooooooooooooooo",
"oooooooooooooooooo   XXXXXXXX....        ....        ....        ....XXXXXXXX     oooooooooooooooooo",
"oooooooooooooooooo   XXXXXXXX........................................XXXXXXXX     oooooooooooooooooo",
"oooooooooooooooooo   XXXXXXXX........................................XXXXXXXX     oooooooooooooooooo",
"oooooooooooooooooo   XXXXXXXX........................................XXXXXXXX     oooooooooooooooooo",
"oooooooooooooooooo   XXXXXXXX........................................XXXXXXXX     oooooooooooooooooo",
"oooooooooooooooooo   XXXXXXXX....        ....        ....        ....XXXXXXXX     oooooooooooooooooo",
"oooooooooooooooooo   XXXXXXXX....        ....        ....        ....XXXXXXXX     oooooooooooooooooo",
"oooooooooooooooooo   XXXXXXXX....        ....        ....        ....XXXXXXXX     oooooooooooooooooo",
"oooooooooooooooooo   XXXXXXXX....        ....        ....        ....XXXXXXXX     oooooooooooooooooo",
"oooooooooooooooooo   XXXXXXXX....        ....        ....        ....XXXXXXXX     oooooooooooooooooo",
"oooooooooooooooooo   XXXXXXXX....        ....        ....        ....XXXXXXXX     oooooooooooooooooo",
"oooooooooooooooooo   XXXXXXXX....        ....        ....        ....XXXXXXXX     oooooooooooooooooo",
"oooooooooooooooooo   XXXXXXXX....        ....        ....        ....XXXXXXXX     oooooooooooooooooo",
"oooooooooooooooooo   XXXXXXXX........................................XXXXXXXX     oooooooooooooooooo",
"oooooooooooooooooo   XXXXXXXX........................................XXXXXXXX     oooooooooooooooooo",
"oooooooooooooooooo   XXXXXXXX........................................XXXXXXXX     oooooooooooooooooo",
"oooooooooooooooooo   XXXXXXXX........................................XXXXXXXX     oooooooooooooooooo",
"oooooooooooooooooo   ........oooooooooooooooooooooooooooooooooooooooo........     oooooooooooooooooo",
"oooooooooooooooooo   ........oooooooooooooooooooooooooooooooooooooooo........     oooooooooooooooooo",
"oooooooooooooooooo   ........oooooooooooooooooooooooooooooooooooooooo........     oooooooooooooooooo",
"oooooooooooooooooo   ........oooooooooooooooooooooooooooooooooooooooo........     oooooooooooooooooo",
"oooooooooooooooooo   ooooXXXXooooooooXXXXooooXXXXooooooooooooooooooooooooXXXX     oooooooooooooooooo",
"oooooooooooooooooo   ooooXXXXooooooooXXXXooooXXXXooooooooooooooooooooooooXXXX     oooooooooooooooooo",
"oooooooooooooooooo   ooooXXXXooooooooXXXXooooXXXXooooooooooooooooooooooooXXXX     oooooooooooooooooo",
"oooooooooooooooooo   ooooXXXXooooooooXXXXooooXXXXooooooooooooooooooooooooXXXX     oooooooooooooooooo",
"oooooooooooooooooo   ooooXXXXooooooooooooXXXXooooooooooooooooooooooooXXXXXXXX     oooooooooooooooooo",
"oooooooooooooooooo   ooooXXXXooooooooooooXXXXooooooooooooooooooooooooXXXXXXXX     oooooooooooooooooo",
"oooooooooooooooooo   ooooXXXXooooooooooooXXXXooooooooooooooooooooooooXXXXXXXX     oooooooooooooooooo",
"oooooooooooooooooo   ooooXXXXooooooooooooXXXXooooooooooooooooooooooooXXXXXXXX     oooooooooooooooooo",
"oooooooooooooooooo   XXXXXXXXooooooooXXXXooooXXXXooooooooooooooooooooooooXXXX     oooooooooooooooooo",
"oooooooooooooooooo   XXXXXXXXooooooooXXXXooooXXXXooooooooooooooooooooooooXXXX     oooooooooooooooooo",
"oooooooooooooooooo   XXXXXXXXooooooooXXXXooooXXXXooooooooooooooooooooooooXXXX     oooooooooooooooooo",
"oooooooooooooooooo   XXXXXXXXooooooooXXXXooooXXXXooooooooooooooooooooooooXXXX     oooooooooooooooooo",
"oooooooooooooooooo   XXXXXXXXooooooooooooooooooooooooooooooooooooooooXXXXXXXX     oooooooooooooooooo",
"oooooooooooooooooo   XXXXXXXXooooooooooooooooooooooooooooooooooooooooXXXXXXXX     oooooooooooooooooo",
"oooooooooooooooooo   XXXXXXXXooooooooooooooooooooooooooooooooooooooooXXXXXXXX     oooooooooooooooooo",
"oooooooooooooooooo   XXXXXXXXooooooooooooooooooooooooooooooooooooooooXXXXXXXX     oooooooooooooooooo",
"oooooooooooooooooo   XXXXXXXXooooooooooooooooooooooooooooooooooooooooXXXXXXXX     oooooooooooooooooo",
"oooooooooooooooooo   XXXXXXXXooooooooooooooooooooooooooooooooooooooooXXXXXXXX     oooooooooooooooooo",
"oooooooooooooooooo   XXXXXXXXooooooooooooooooooooooooooooooooooooooooXXXXXXXX     oooooooooooooooooo",
"oooooooooooooooooo   XXXXXXXXooooooooooooooooooooooooooooooooooooooooXXXXXXXX     oooooooooooooooooo",
"oooooooooooooooooo   ........XXXXXXXXXXXXXXXXXXXXXXXXXXXXXXXXXXXXXXXX........     oooooooooooooooooo",
"oooooooooooooooooo   ........XXXXXXXXXXXXXXXXXXXXXXXXXXXXXXXXXXXXXXXX........     oooooooooooooooooo",
"oooooooooooooooooo   ........XXXXXXXXXXXXXXXXXXXXXXXXXXXXXXXXXXXXXXXX........     oooooooooooooooooo",
"oooooooooooooooooo   ........XXXXXXXXXXXXXXXXXXXXXXXXXXXXXXXXXXXXXXXX........     oooooooooooooooooo",
"oooooooooooooooooo   ........XXXXXXXXXXXXXXXXXXXXXXXXXXXXXXXXXXXXXXXX........     oooooooooooooooooo",
"oooooooooooooooooo   ........XXXXXXXXXXXXXXXXXXXXXXXXXXXXXXXXXXXXXXXX........     oooooooooooooooooo",
"oooooooooooooooooo   ........XXXXXXXXXXXXXXXXXXXXXXXXXXXXXXXXXXXXXXXX........     oooooooooooooooooo",
"oooooooooooooooooo   ........XXXXXXXXXXXXXXXXXXXXXXXXXXXXXXXXXXXXXXXX........     oooooooooooooooooo",
"oooooooooooooooooo   ........XXXXXXXXXXXXXXXXXXXXXXXXXXXXXXXXXXXXXXXX........     oooooooooooooooooo",
"oooooooooooooooooo   ........XXXXXXXXXXXXXXXXXXXXXXXXXXXXXXXXXXXXXXXX........     oooooooooooooooooo",
"oooooooooooooooooo   ........XXXXXXXXXXXXXXXXXXXXXXXXXXXXXXXXXXXXXXXX........     oooooooooooooooooo",
"oooooooooooooooooo   ........XXXXXXXXXXXXXXXXXXXXXXXXXXXXXXXXXXXXXXXX........     oooooooooooooooooo",
"oooooooooooooooooo   ....                                                ....     oooooooooooooooooo",
"oooooooooooooooooo   ....                                                ....     oooooooooooooooooo",
"oooooooooooooooooo   ....                                                ....     oooooooooooooooooo",
"oooooooooooooooooo   ....                                                ....     oooooooooooooooooo",
"oooooooooooooooooo           OOOOOOOOOOOOOOOOOOOOOOOOOOOOOOOOOOOOOOOO            ooooooooooooooooooo",
"oooooooooooooooooo           OOOOOOOOOOOOOOOOOOOOOOOOOOOOOOOOOOOOOOOO            ooooooooooooooooooo",
"oooooooooooooooooo           OOOOOOOOOOOOOOOOOOOOOOOOOOOOOOOOOOOOOOOO            ooooooooooooooooooo",
"oooooooooooooooooo           OOOOOOOOOOOOOOOOOOOOOOOOOOOOOOOOOOOOOOOO            ooooooooooooooooooo"
};
