/* XPM */
static char *_ad8a2c841324fd988e976f5a4fdeef7VepZWNV0R63hv7CB[] = {
/* columns rows colors chars-per-pixel */
"100 100 36 1 ",
"  c #0E0D0C",
". c #0C0D0E",
"X c #0F0C0E",
"o c #0E0D0E",
"O c #0E0F0E",
"+ c #2E271C",
"@ c #30231E",
"# c #31251F",
"$ c #2E2420",
"% c #322721",
"& c #322821",
"* c #342A22",
"= c #332924",
"- c #352B26",
"; c #0A7030",
": c #0A7130",
"> c #0A7032",
", c #7C776D",
"< c #7C776F",
"1 c #D2202C",
"2 c #997D57",
"3 c #EAA724",
"4 c #EBA724",
"5 c #EBA426",
"6 c #B3AAA0",
"7 c #B3AAA1",
"8 c #B3ABA1",
"9 c #B3A8A3",
"0 c #C3AA83",
"q c #DECDA0",
"w c #E2CEA3",
"e c #E2CFA4",
"r c #E1D0A2",
"t c #E2D0A4",
"y c #E8DFD1",
"u c #EADFD3",
/* pixels */
"--------------------ooooooooooooooooooooooooooooooooooooo-----------------------&%%@%*--------------",
"--------------------ooooooooooooooooooooooooooooooooooooo-----------------------&#$$+%&-------------",
"--------------------ooooooooooooooooooooooooooooooooooooo-----------------------=%#%%%=-------------",
"--------------------ooooooooooooooooooooooooooooooooooooo------------------------&%%&%**------------",
"--------------------ooooooooooooooooooooooooooooooooooooo------------------------&%%&%**------------",
"---------------oooooooooo111111111111111111111111111ooooooooooo------------------&%%%*--------------",
"------------eeeoooooooooo111111111111111111111111111oooooooooooeeeeeeeeeeeeeeeewwwwwwrwe------------",
"------------eeeoooooooooo111111111111111111111111111oooooooooooeeeeeeeeeeeeeeeewwwwrwwrw------------",
"------------eeeoooooooooo111111111111111111111111111oooooooooooeeeeeeeeeeeeeeeeewtewwrww------------",
"------------eeeoooooooooo111111111111111111111111111oooooooooooteeeeeeeeeeeeeeeeewwwwwwe------------",
"------------eeeooooo11111oooooooooo1111111111111111111111ooooooeeeeeeeeeeeeeeeeeewwwwwte------------",
"------------eeeooooo11111oooooooooo1111111111111111111111ooooooeeeeeeeeeeeeeeeeeeewwwwee------------",
"------eeeeeeeeeooooo11111oooooooooo1111111111111111111111oooooo000000000000eeeeeeeewweweeeeeee------",
"------eeeeeeeeeooooo11111oooooooooo1111111111111111111111oooooo000000000000eeeeeeeeewweweeeeee------",
"------eeeeeeeeeooooo11111oooooooooo1111111111111111111111oooooo000000000000eeeeeeeewwwwweeeeee------",
"------eeeeeeeeeoooooooooooooooooooooooooo11111111111ooooooooooooooooooooooooooeeeeweewweweeeee------",
"------eeeeeeeeeoooooooooooooooooooooooooo11111111111ooooooooooooooooooooooooooeeeeeeeweeeeeeee------",
"------eeeeeeeeeoooooooooooooooooooooooooo11111111111ooooooooooooooooooooooooooeeeeetteeeeeeeee------",
"------eeeeeeeeeoooooooooooooooooooooooooo11111111111oooooooooooooooooooooooooo0000erqeeeeeeeee------",
"------eeeeeeeeeoooooooooooooooooooooooooo11111111111oooooooooooooooooooooooooo0000ewweeeeeeeee------",
"------eeeeeeeeeeee0000000oooooyyyyyyyyyyyyyyyy<,,,,<<<,,<<<<,,,,<<,,,,,,,ooooo0000eeeeeeeeeeee------",
"------eeeeeeeeeeee0000000oooooyyyyyyyyyyyyyyyy<<,,,,<<,<<<<<,,,,<<,,,,,,,ooooo0000eeeeeeeeeeee------",
"------eeeeeeeeeeee0000000oooooyyyyyyyyyyyyyyyy,,,,,,<<<<<,<<,,,,<<<<,,,,,ooooo0000eeeeeeeeeeee------",
"------eeeeeeeeeeee0000000oooooyyyyyyyyyyyyyyyy,,,,,,<<<<,,<<<,,,<<<<<<,<,ooooo0000eeeeeeeeeeee------",
"------eeeeee0000000000000oooooyyyyyyyyyyyyyyyy,,,,<<,,,,,,<<<,,,,,,,,,<<,ooooo0000000000eeeeee------",
"------eeeeee0000000000000oooooyyyyyyyyyyyyyyyy,,,,,<,,,,,,<<,,,,,,,,,,<<,ooooo0000000000eeeeee------",
"------eeeeee0000000000000oooooyyyyyoooooooooooooooooooooooooooooooooooooooooooooooo00000eeeeee------",
"------eeeeee0000000000000oooooyyyyyoooooooooooooooooooooooooooooooooooooooooooooooo00000eeeeee------",
"------eeeeee0000000000000oooooyyyyyoooooooooooooooooooooooooooooooooooooooooooooooo00000eeeeee------",
"------eeeeee0000000000000oooooyyyyyoooooooooooooooooooooooooooooooooooooooooooooooo00000eeeeee------",
"------eeeeee0000000000000oooooyyyyyoooooooooooooooooooooooooooooooooooooooooooooooo00000eeeeee------",
"------eeeeee000000eeeeee0ooooo,,,,,ooooooyyyyyyyyyyyyyyyy777777777777777777777ooooo00000eeeeee------",
"------eeeeee000000eeeeee0ooooo,,,,<ooooooyyyyyyyyyyyyyyyy777777777777777777777ooooo00000eeeeee------",
"------eeeeee000000eeeeee0ooooo,,,,<ooooooyyyyyyyyyyyyyyyy777777777777777777777ooooo00000eeeeee------",
"------eeeeee000000eeeeee0ooooo,,,,,ooooooyyyyyyyyyyyyyyyy777777777777777777777ooooo00000eeeeee------",
"------eeeeee000000eeeeee0ooooo,<,,,ooooooyyyyyyyyyyyyyyyy777777777777777777777ooooo00000eeeeee------",
"------eeeeee000000eeeeee0ooooo<<,,,ooooooyyyyyyyyyyyyyyyy777777777777777777777ooooo00000eeeeee------",
"------eeeeee0000000000000ooooo<<,,,ooooooyyyyyoooooo77777oooooo77777ooooo77777ooooo00000eeeeee------",
"------eeeeee0000000000000ooooo,,,,,ooooooyyyyyoooooo77777oooooo77777ooooo77777ooooo00000eeeeee------",
"------eeeeee0000000000000ooooo,,,,,ooooooyyyyyoooooo77777oooooo77777ooooo77777ooooo00000eeeeee------",
"------eeeeee0000000000000ooooo,,,,<ooooooyyyyyoooooo77777oooooo77777ooooo77777ooooo00000eeeeee------",
"------eeeeee0000000000000ooooo,,<,<ooooooyyyyyoooooo77777oooooo77777ooooo77777ooooo00000eeeeee------",
"------eeeeee0000000000000ooooo,,<<<oooooo77777oooooo77777oooooo77777ooooo77777ooooo00000eeeeee------",
"------eeeeee0000000000002ooooo,,<<<oooooo77777oooooo77777oooooo77777ooooo77777ooooo00000eeeeee------",
"------eeeeee0000000000002ooooo,,,,<oooooo77777oooooo77777oooooo77777ooooo77777ooooo00000eeeeee------",
"------eeeeee0000000000002ooooo,,,,<oooooo77777oooooo77777oooooo77777ooooo77777ooooo00000eeeeee------",
"------eeeeee0000000000002ooooo,,,,,oooooo77777oooooo77777oooooo77777ooooo77777ooooo00000eeeeee------",
"------eeeeee0000000000002ooooo,<,,,oooooo77777oooooo77777oooooo77777ooooo77777ooooo00000eeeeee------",
"------eeeeee0000000000002ooooo<<,,,oooooo77777oooooo77777oooooo77777ooooo77777ooooo00000eeeeee------",
"------eeeeee0000000000002ooooo<<,,,oooooo77777oooooo77777oooooo77777ooooo77777ooooo00000eeeeee------",
"------2222220000000000002ooooo,,,,,oooooo77777oooooo77777oooooo77777ooooo77777ooooo00000222222------",
"------2222220000000000002ooooo,,,,,oooooo77777oooooo77777oooooo77777ooooo77777ooooo00000222222------",
"------2222220000000000002ooooo,,,,,oooooo77777oooooo77777oooooo77777ooooo77777ooooo00000222222------",
"------2222220000000000002ooooo,,<,<oooooo7777777777777777777777777777777777777ooooo00000222222------",
"------2222220000000000002ooooo,,<<<oooooo7777777777777777777777777777777777777ooooo00000222222------",
"------2222220000000000002ooooo,,<<<oooooo7777777777777777777777777777777777777ooooo00000222222------",
"------2222220000000000002ooooo,,<,,oooooo7777777777777777777777777777777777777ooooo00000222222------",
"------2222220000000000000ooooo,,,<,oooooo7777777777777777777777777777777777777ooooo00000222222------",
"------22222200000000ooooooooooooooooooooooooooooooooooooooooooooooooooooooooooooooo00000222222------",
"------22222200000000ooooooooooooooooooooooooooooooooooooooooooooooooooooooooooooooo00000222222------",
"------22222200000000ooooooooooooooooooooooooooooooooooooooooooooooooooooooooooooooo00000222222------",
"------22222200000000ooooooooooooooooooooooooooooooooooooooooooooooooooooooooooooooo00000222222------",
"------22222200000000ooooooooooooooooooooooooooooooooooooooooooooooooooooooooooooooo00000222222------",
"------22222200000022ooooo>>>>>>>>>>>>>>>>44444444444444444444444444444444ooooo0000222222222222------",
"------22222200000022ooooo>>>>>>>>>>>>>>>>44444444444444444444444444444444ooooo0000222222222222------",
"------22222200000022ooooo>>>>>>>>>>>>>>>>44444444444444444444444444444444ooooo0000222222222222------",
"------22222200000022ooooo>>>>>>>>>>>>>>>>44444444444444444444444444444444ooooo0000222222222222------",
"------22222200000022ooooo>>>>>>>>>>>>>>>>44444444444444444444444444444444ooooo0000222222222222------",
"------22222200000022ooooo>>>>>>>>>>>>>>>>44444444444444444444444444444444ooooo0000222222222222------",
"------22222200000000ooooo>>>>>>>>>>>>>>>>44444oooooooooooooooooooooooooooooooo0000000000222222------",
"------22222200000000ooooo>>>>>>>>>>>>>>>>44444oooooooooooooooooooooooooooooooo0000000000222222------",
"------22222200000000ooooo>>>>>>>>>>>>>>>>44444oooooooooooooooooooooooooooooooo0000000000222222------",
"------22222200000000ooooo>>>>>>>>>>>>>>>>44444oooooooooooooooooooooooooooooooo0000000000222222------",
"------22222200000000ooooo>>>>>>>>>>>>>>>>44444oooooooooooooooooooooooooooooooo0000000000222222------",
"------22222200000000ooooo>>>>>>>>>>>>>>>>44444oooooo<<<<,,,,<<<<,,,,<<<,,ooooo0000000000222222------",
"------22222200000000ooooo>>>>>>>>>>>>>>>>44444oooooo<<<<,,,,<<<,,,,,<<<,,ooooo2222000000222222------",
"------22222200000000ooooo>>>>>>>>>>>>>>>>44444oooooo,,,,,,<<<<,,,,<<<<,,,ooooo2222000000222222------",
"------22222200000000ooooo>>>>>>>>>>>>>>>>44444oooooo,,,,,,<<<<,,,,<<<<,,,ooooo2222000000222222------",
"------22222200000000ooooo>>>>>>>>>>>>>>>>44444oooooo,,,,,<<<,,,,,<<<<,,,,ooooo2222000000222222------",
"------22222200000000ooooo>>>>>>>>>>>>>>>>44444oooooo,,,,,<<<,,,,,,<<,,,,,ooooo2222000000222222------",
"------22222200000000ooooo>>>>>>>>>>>>>>>>44444oooooo<<,,<<<<,,,,,,<<<<,,,ooooo2222000000222222------",
"------22222200000000ooooo>>>>>>>>:>>>>>>>44444oooooo<,,,<<<,,,,,,,,<<,,,,ooooo2222000000222222------",
"------22222200000000ooooo>>>>>>>>>>>>>>>>44444oooooo<<,,<<,,,,,,,,<<<,,,,ooooo0000000000222222------",
"------22222200000000ooooo>>>>>>>>>>>>>>>>44444oooooo<<,,<<,,,,,,,,<<<<,,,ooooo0000000000222222------",
"------22222200000000ooooo>>>>>>>>>>>>>>>>44444oooooo,,,,<,,,,,,,,,<<,,,,,ooooo0000000000222222------",
"------22222200000000ooooo>>>>>>>>>>>>>>>>44444ooooooooooooooooo7777777777ooooo0000000000222222------",
"------22222200000000ooooo:>>>>>>>>>>>>>>>44444ooooooooooooooooo7777777777ooooo0000000000222222------",
"------22222200000000ooooo>>>>>>>>>>>>>>>>44444ooooooooooooooooo7777777777ooooo0000000000222222------",
"------------22222222ooooo>>>>>>>>>>>>>>>>44444ooooooooooooooooo7777777777ooooo2222222222------------",
"------------22222222ooooo>>>>>>>>>>>>>>>>44444ooooooooooooooooo7777777777ooooo2222222222------------",
"------------22222222ooooo444444444444444444444ooooooooooooooooo77777oooooooooo2222222222------------",
"------------22222222ooooo444444444444444444444ooooooooooooooooo77777oooooooooo2222222222------------",
"------------22222222ooooo444444444444444444444ooooooooooooooooo77777oooooooooo2222222222------------",
"------------22222222ooooo444444444444444444444ooooooooooooooooo77777oooooooooo2222222222------------",
"--------------------ooooo444444444444444444444ooooooooooooooooo77777oooooooooo----------------------",
"--------------------oooooooooooooooooooooooooooooooo-----oooooooooooooooo---------------------------",
"--------------------oooooooooooooooooooooooooooooooo-----oooooooooooooooo---------------------------",
"--------------------oooooooooooooooooooooooooooooooo-----oooooooooooooooo---------------------------",
"--------------------oooooooooooooooooooooooooooooooo-----oooooooooooooooo---------------------------",
"--------------------oooooooooooooooooooooooooooooooo-----oooooooooooooooo---------------------------"
};
