/* XPM */
static char *e1bdc7ca5e6645a6926623239c00cc45FY6J3uw215fjkgnK[] = {
/* columns rows colors chars-per-pixel */
"100 100 4 1 ",
"  c #352B26",
". c #997D57",
"X c #C3AA83",
"o c #E2CFA4",
/* pixels */
"                                                                                                    ",
"                                                                                                    ",
"                                                                                                    ",
"                                                                                                    ",
"                                                                                                    ",
"                                                                                                    ",
"            oooooooooooooooooooooooooooooooooooooooooooooooooooooooooooooooooooooooooooo            ",
"            oooooooooooooooooooooooooooooooooooooooooooooooooooooooooooooooooooooooooooo            ",
"            oooooooooooooooooooooooooooooooooooooooooooooooooooooooooooooooooooooooooooo            ",
"            oooooooooooooooooooooooooooooooooooooooooooooooooooooooooooooooooooooooooooo            ",
"            oooooooooooooooooooooooooooooooooooooooooooooooooooooooooooooooooooooooooooo            ",
"            oooooooooooooooooooooooooooooooooooooooooooooooooooooooooooooooooooooooooooo            ",
"      ooooooooooooooooooXXXXXXXooooooooooooooooooXXXXXXXXXXXXXXXXXXXXXXXXXXooooooooooooooooooo      ",
"      ooooooooooooooooooXXXXXXXooooooooooooooooooXXXXXXXXXXXXXXXXXXXXXXXXXXooooooooooooooooooo      ",
"      ooooooooooooooooooXXXXXXXooooooooooooooooooXXXXXXXXXXXXXXXXXXXXXXXXXXooooooooooooooooooo      ",
"      ooooooooooooooooooXXXXXXXooooooooooooooooooXXXXXXXXXXXXXXXXXXXXXXXXXXooooooooooooooooooo      ",
"      ooooooooooooooooooXXXXXXXooooooooooooooooooXXXXXXXXXXXXXXXXXXXXXXXXXXooooooooooooooooooo      ",
"      ooooooooooooooooooXXXXXXXooooooooooooooooooXXXXXXXXXXXXXXXXXXXXXXXXXXooooooooooooooooooo      ",
"      ooooooooooooXXXXXXXXXXXXXooooooooooooooooooXXXXXXXXXXXXXXXXXXXXXXXXXXXXXXXXXoooooooooooo      ",
"      ooooooooooooXXXXXXXXXXXXXooooooooooooooooooXXXXXXXXXXXXXXXXXXXXXXXXXXXXXXXXXoooooooooooo      ",
"      ooooooooooooXXXXXXXXXXXXXooooooooooooooooooXXXXXXXXXXXXXXXXXXXXXXXXXXXXXXXXXoooooooooooo      ",
"      ooooooooooooXXXXXXXXXXXXXooooooooooooooooooXXXXXXXXXXXXXXXXXXXXXXXXXXXXXXXXXoooooooooooo      ",
"      ooooooooooooXXXXXXXXXXXXXooooooooooooooooooXXXXXXXXXXXXXXXXXXXXXXXXXXXXXXXXXoooooooooooo      ",
"      ooooooooooooXXXXXXXXXXXXXooooooooooooooooooXXXXXXXXXXXXXXXXXXXXXXXXXXXXXXXXXoooooooooooo      ",
"      ooooooXXXXXXXXXXXXXXXXXXXooooooooooooooooooXXXXXXXXooooooooooooXXXXXXXXXXXXXXXXXXXoooooo      ",
"      ooooooXXXXXXXXXXXXXXXXXXXooooooooooooooooooXXXXXXXXooooooooooooXXXXXXXXXXXXXXXXXXXoooooo      ",
"      ooooooXXXXXXXXXXXXXXXXXXXooooooooooooooooooXXXXXXXXooooooooooooXXXXXXXXXXXXXXXXXXXoooooo      ",
"      ooooooXXXXXXXXXXXXXXXXXXXooooooooooooooooooXXXXXXXXooooooooooooXXXXXXXXXXXXXXXXXXXoooooo      ",
"      ooooooXXXXXXXXXXXXXXXXXXXooooooooooooooooooXXXXXXXXooooooooooooXXXXXXXXXXXXXXXXXXXoooooo      ",
"      ooooooXXXXXXXXXXXXXXXXXXXooooooooooooooooooXXXXXXXXooooooooooooXXXXXXXXXXXXXXXXXXXoooooo      ",
"      ooooooXXXXXXXXXXXXXXXXXXXooooooooooooooooooXXXXXXXXooooooooooooXXXXXXXXXXXXXXXXXXXoooooo      ",
"      ooooooXXXXXXooooooXXXXXXXXXXXXXXXXXXXXXXXXXXXXXXXXXooooooooooooXXXXXXXXXXXXXXXXXXXoooooo      ",
"      ooooooXXXXXXooooooXXXXXXXXXXXXXXXXXXXXXXXXXXXXXXXXXooooooooooooXXXXXXXXXXXXXXXXXXXoooooo      ",
"      ooooooXXXXXXooooooXXXXXXXXXXXXXXXXXXXXXXXXXXXXXXXXXooooooooooooXXXXXXXXXXXXXXXXXXXoooooo      ",
"      ooooooXXXXXXooooooXXXXXXXXXXXXXXXXXXXXXXXXXXXXXXXXXooooooooooooXXXXXXXXXXXXXXXXXXXoooooo      ",
"      ooooooXXXXXXooooooXXXXXXXXXXXXXXXXXXXXXXXXXXXXXXXXXooooooooooooXXXXXXXXXXXXXXXXXXXoooooo      ",
"      ooooooXXXXXXooooooXXXXXXXXXXXXXXXXXXXXXXXXXXXXXXXXXooooooooooooXXXXXXXXXXXXXXXXXXXoooooo      ",
"      ooooooXXXXXXXXXXXXXXXXXXXXXXXXXXXXXXXXXXXXXXXXXXXXXXXXXXXXXXXXXXXXXXXXXXXXXXXXXXXXoooooo      ",
"      ooooooXXXXXXXXXXXXXXXXXXXXXXXXXXXXXXXXXXXXXXXXXXXXXXXXXXXXXXXXXXXXXXXXXXXXXXXXXXXXoooooo      ",
"      ooooooXXXXXXXXXXXXXXXXXXXXXXXXXXXXXXXXXXXXXXXXXXXXXXXXXXXXXXXXXXXXXXXXXXXXXXXXXXXXoooooo      ",
"      ooooooXXXXXXXXXXXXXXXXXXXXXXXXXXXXXXXXXXXXXXXXXXXXXXXXXXXXXXXXXXXXXXXXXXXXXXXXXXXXoooooo      ",
"      ooooooXXXXXXXXXXXXXXXXXXXXXXXXXXXXXXXXXXXXXXXXXXXXXXXXXXXXXXXXXXXXXXXXXXXXXXXXXXXXoooooo      ",
"      ooooooXXXXXXXXXXXXXXXXXXXXXXXXXXXXXXXXXXXXXXXXXXXXXXXXXXXXXXXXXXXXXXXXXXXXXXXXXXXXoooooo      ",
"      ooooooXXXXXXXXXXXX.............XXXXXXXXXXXXXXXXXXXXXXXXXXXXXXXXXXXXXXoooooooXXXXXXoooooo      ",
"      ooooooXXXXXXXXXXXX.............XXXXXXXXXXXXXXXXXXXXXXXXXXXXXXXXXXXXXXoooooooXXXXXXoooooo      ",
"      ooooooXXXXXXXXXXXX.............XXXXXXXXXXXXXXXXXXXXXXXXXXXXXXXXXXXXXXoooooooXXXXXXoooooo      ",
"      ooooooXXXXXXXXXXXX.............XXXXXXXXXXXXXXXXXXXXXXXXXXXXXXXXXXXXXXoooooooXXXXXXoooooo      ",
"      ooooooXXXXXXXXXXXX.............XXXXXXXXXXXXXXXXXXXXXXXXXXXXXXXXXXXXXXoooooooXXXXXXoooooo      ",
"      ooooooXXXXXXXXXXXX.............XXXXXXXXXXXXXXXXXXXXXXXXXXXXXXXXXXXXXXoooooooXXXXXXoooooo      ",
"      ooooooXXXXXXXXXXXX.............XXXXXXXXXXXXXXXXXXXXXXXXXXXXXXXXXXXXXXoooooooXXXXXXoooooo      ",
"      ......XXXXXXXXXXXX.............XXXXXXooooooooooooooXXXXXXXXXXXXXXXXXXXXXXXXXXXXXXX......      ",
"      ......XXXXXXXXXXXX.............XXXXXXooooooooooooooXXXXXXXXXXXXXXXXXXXXXXXXXXXXXXX......      ",
"      ......XXXXXXXXXXXX.............XXXXXXooooooooooooooXXXXXXXXXXXXXXXXXXXXXXXXXXXXXXX......      ",
"      ......XXXXXXXXXXXX.............XXXXXXooooooooooooooXXXXXXXXXXXXXXXXXXXXXXXXXXXXXXX......      ",
"      ......XXXXXXXXXXXX.............XXXXXXooooooooooooooXXXXXXXXXXXXXXXXXXXXXXXXXXXXXXX......      ",
"      ......XXXXXXXXXXXX.............XXXXXXooooooooooooooXXXXXXXXXXXXXXXXXXXXXXXXXXXXXXX......      ",
"      ......XXXXXXXXXXXX.............XXXXXXooooooooooooooXXXXXXXXXXXXXXXXXXXXXXXXXXXXXXX......      ",
"      ......XXXXXXXXXXXXXXXXXXXXXXXXXXXXXXXooooooooooooooXXXXXXXXXXXXXXXXXXXXXXXXXXXXXXX......      ",
"      ......XXXXXXXXXXXXXXXXXXXXXXXXXXXXXXXooooooooooooooXXXXXXXXXXXXXXXXXXXXXXXXXXXXXXX......      ",
"      ......XXXXXXXXXXXXXXXXXXXXXXXXXXXXXXXooooooooooooooXXXXXXXXXXXXXXXXXXXXXXXXXXXXXXX......      ",
"      ......XXXXXXXXXXXXXXXXXXXXXXXXXXXXXXXooooooooooooooXXXXXXXXXXXXXXXXXXXXXXXXXXXXXXX......      ",
"      ......XXXXXXXXXXXXXXXXXXXXXXXXXXXXXXXooooooooooooooXXXXXXXXXXXXXXXXXXXXXXXXXXXXXXX......      ",
"      ......XXXXXXXXXXXXXXXXXXXXXXXXXXXXXXXooooooooooooooXXXXXXXXXXXXXXXXXXXXXXXXXXXXXXX......      ",
"      ......XXXXXX......XXXXXXXXXXXXXXXXXXXXXXXXXXXXXXXXXXXXXXXXXXXXXXXXXXXXXXXXXX............      ",
"      ......XXXXXX......XXXXXXXXXXXXXXXXXXXXXXXXXXXXXXXXXXXXXXXXXXXXXXXXXXXXXXXXXX............      ",
"      ......XXXXXX......XXXXXXXXXXXXXXXXXXXXXXXXXXXXXXXXXXXXXXXXXXXXXXXXXXXXXXXXXX............      ",
"      ......XXXXXX......XXXXXXXXXXXXXXXXXXXXXXXXXXXXXXXXXXXXXXXXXXXXXXXXXXXXXXXXXX............      ",
"      ......XXXXXX......XXXXXXXXXXXXXXXXXXXXXXXXXXXXXXXXXXXXXXXXXXXXXXXXXXXXXXXXXX............      ",
"      ......XXXXXX......XXXXXXXXXXXXXXXXXXXXXXXXXXXXXXXXXXXXXXXXXXXXXXXXXXXXXXXXXX............      ",
"      ......XXXXXXXXXXXXXXXXXXXXXXXXXXXXXXXXXXXXXXXXXXXXX............XXXXXXXXXXXXXXXXXXX......      ",
"      ......XXXXXXXXXXXXXXXXXXXXXXXXXXXXXXXXXXXXXXXXXXXXX............XXXXXXXXXXXXXXXXXXX......      ",
"      ......XXXXXXXXXXXXXXXXXXXXXXXXXXXXXXXXXXXXXXXXXXXXX............XXXXXXXXXXXXXXXXXXX......      ",
"      ......XXXXXXXXXXXXXXXXXXXXXXXXXXXXXXXXXXXXXXXXXXXXX............XXXXXXXXXXXXXXXXXXX......      ",
"      ......XXXXXXXXXXXXXXXXXXXXXXXXXXXXXXXXXXXXXXXXXXXXX............XXXXXXXXXXXXXXXXXXX......      ",
"      ......XXXXXXXXXXXXXXXXXXXXXXXXXXXXXXXXXXXXXXXXXXXXX............XXXXXXXXXXXXXXXXXXX......      ",
"      ......XXXXXXXXXXXX.............XXXXXXXXXXXXXXXXXXXX............XXXXXX.......XXXXXX......      ",
"      ......XXXXXXXXXXXX.............XXXXXXXXXXXXXXXXXXXX............XXXXXX.......XXXXXX......      ",
"      ......XXXXXXXXXXXX.............XXXXXXXXXXXXXXXXXXXX............XXXXXX.......XXXXXX......      ",
"      ......XXXXXXXXXXXX.............XXXXXXXXXXXXXXXXXXXX............XXXXXX.......XXXXXX......      ",
"      ......XXXXXXXXXXXX.............XXXXXXXXXXXXXXXXXXXX............XXXXXX.......XXXXXX......      ",
"      ......XXXXXXXXXXXX.............XXXXXXXXXXXXXXXXXXXX............XXXXXX.......XXXXXX......      ",
"      ......XXXXXXXXXXXX.............XXXXXXXXXXXXXXXXXXXX............XXXXXX.......XXXXXX......      ",
"      ......XXXXXXXXXXXX.............XXXXXXXXXXXXXXXXXXXXXXXXXXXXXXXXXXXXXXXXXXXXXXXXXXX......      ",
"      ......XXXXXXXXXXXX.............XXXXXXXXXXXXXXXXXXXXXXXXXXXXXXXXXXXXXXXXXXXXXXXXXXX......      ",
"      ......XXXXXXXXXXXX.............XXXXXXXXXXXXXXXXXXXXXXXXXXXXXXXXXXXXXXXXXXXXXXXXXXX......      ",
"      ......XXXXXXXXXXXX.............XXXXXXXXXXXXXXXXXXXXXXXXXXXXXXXXXXXXXXXXXXXXXXXXXXX......      ",
"      ......XXXXXXXXXXXX.............XXXXXXXXXXXXXXXXXXXXXXXXXXXXXXXXXXXXXXXXXXXXXXXXXXX......      ",
"      ......XXXXXXXXXXXX.............XXXXXXXXXXXXXXXXXXXXXXXXXXXXXXXXXXXXXXXXXXXXXXXXXXX......      ",
"            ............................................................................            ",
"            ............................................................................            ",
"            ............................................................................            ",
"            ............................................................................            ",
"            ............................................................................            ",
"            ............................................................................            ",
"                                                                                                    ",
"                                                                                                    ",
"                                                                                                    ",
"                                                                                                    ",
"                                                                                                    ",
"                                                                                                    "
};
