/* XPM */
static char *e7e2fb6b1a5644c3d174f58da09f12fetNxjlv34rNH8e2K1[] = {
/* columns rows colors chars-per-pixel */
"100 100 5 1 ",
"  c black",
". c #242B33",
"X c #3D4857",
"o c #636B85",
"O c #AEB4CE",
/* pixels */
"            ............................................................................            ",
"            ............................................................................            ",
"            ............................................................................            ",
"            ............................................................................            ",
"            ............................................................................            ",
"            ............................................................................            ",
"      ......OOOOOOOOOOOOOOOOOOOOOOOOOOOOOOOOOOOOOOOOOOOOOOOOOOOOOOOOOOOOOOOOOOOOOOOOOOOO......      ",
"      ......OOOOOOOOOOOOOOOOOOOOOOOOOOOOOOOOOOOOOOOOOOOOOOOOOOOOOOOOOOOOOOOOOOOOOOOOOOOO......      ",
"      ......OOOOOOOOOOOOOOOOOOOOOOOOOOOOOOOOOOOOOOOOOOOOOOOOOOOOOOOOOOOOOOOOOOOOOOOOOOOO......      ",
"      ......OOOOOOOOOOOOOOOOOOOOOOOOOOOOOOOOOOOOOOOOOOOOOOOOOOOOOOOOOOOOOOOOOOOOOOOOOOOO......      ",
"      ......OOOOOOOOOOOOOOOOOOOOOOOOOOOOOOOOOOOOOOOOOOOOOOOOOOOOOOOOOOOOOOOOOOOOOOOOOOOO......      ",
"      ......OOOOOOOOOOOOOOOOOOOOOOOOOOOOOOOOOOOOOOOOOOOOOOOOOOOOOOOOOOOOOOOOOOOOOOOOOOOO......      ",
"......OOOOOOOOOOOOOOOOOOoooooooOOOOOOOOOOOOOOOOOOooooooooooooooooooooooooooOOOOOOOOOOOOOOOOOOO......",
"......OOOOOOOOOOOOOOOOOOoooooooOOOOOOOOOOOOOOOOOOooooooooooooooooooooooooooOOOOOOOOOOOOOOOOOOO......",
"......OOOOOOOOOOOOOOOOOOoooooooOOOOOOOOOOOOOOOOOOooooooooooooooooooooooooooOOOOOOOOOOOOOOOOOOO......",
"......OOOOOOOOOOOOOOOOOOoooooooOOOOOOOOOOOOOOOOOOooooooooooooooooooooooooooOOOOOOOOOOOOOOOOOOO......",
"......OOOOOOOOOOOOOOOOOOoooooooOOOOOOOOOOOOOOOOOOooooooooooooooooooooooooooOOOOOOOOOOOOOOOOOOO......",
"......OOOOOOOOOOOOOOOOOOoooooooOOOOOOOOOOOOOOOOOOooooooooooooooooooooooooooOOOOOOOOOOOOOOOOOOO......",
"......OOOOOOOOOOOOoooooooooooooOOOOOOOOOOOOOOOOOOoooooooooooooooooooooooooooooooooOOOOOOOOOOOO......",
"......OOOOOOOOOOOOoooooooooooooOOOOOOOOOOOOOOOOOOoooooooooooooooooooooooooooooooooOOOOOOOOOOOO......",
"......OOOOOOOOOOOOoooooooooooooOOOOOOOOOOOOOOOOOOoooooooooooooooooooooooooooooooooOOOOOOOOOOOO......",
"......OOOOOOOOOOOOoooooooooooooOOOOOOOOOOOOOOOOOOoooooooooooooooooooooooooooooooooOOOOOOOOOOOO......",
"......OOOOOOOOOOOOoooooooooooooOOOOOOOOOOOOOOOOOOoooooooooooooooooooooooooooooooooOOOOOOOOOOOO......",
"......OOOOOOOOOOOOoooooooooooooOOOOOOOOOOOOOOOOOOoooooooooooooooooooooooooooooooooOOOOOOOOOOOO......",
"......OOOOOOoooooooooooooooooooOOOOOOOOOOOOOOOOOOooooooooOOOOOOOOOOOOoooooooooooooooooooOOOOOO......",
"......OOOOOOoooooooooooooooooooOOOOOOOOOOOOOOOOOOooooooooOOOOOOOOOOOOoooooooooooooooooooOOOOOO......",
"......OOOOOOoooooooooooooooooooOOOOOOOOOOOOOOOOOOooooooooOOOOOOOOOOOOoooooooooooooooooooOOOOOO......",
"......OOOOOOoooooooooooooooooooOOOOOOOOOOOOOOOOOOooooooooOOOOOOOOOOOOoooooooooooooooooooOOOOOO......",
"......OOOOOOoooooooooooooooooooOOOOOOOOOOOOOOOOOOooooooooOOOOOOOOOOOOoooooooooooooooooooOOOOOO......",
"......OOOOOOoooooooooooooooooooOOOOOOOOOOOOOOOOOOooooooooOOOOOOOOOOOOoooooooooooooooooooOOOOOO......",
"......OOOOOOoooooooooooooooooooOOOOOOOOOOOOOOOOOOooooooooOOOOOOOOOOOOoooooooooooooooooooOOOOOO......",
"......OOOOOOooooooOOOOOOoooooooooooooooooooooooooooooooooOOOOOOOOOOOOoooooooooooooooooooOOOOOO......",
"......OOOOOOooooooOOOOOOoooooooooooooooooooooooooooooooooOOOOOOOOOOOOoooooooooooooooooooOOOOOO......",
"......OOOOOOooooooOOOOOOoooooooooooooooooooooooooooooooooOOOOOOOOOOOOoooooooooooooooooooOOOOOO......",
"......OOOOOOooooooOOOOOOoooooooooooooooooooooooooooooooooOOOOOOOOOOOOoooooooooooooooooooOOOOOO......",
"......OOOOOOooooooOOOOOOoooooooooooooooooooooooooooooooooOOOOOOOOOOOOoooooooooooooooooooOOOOOO......",
"......OOOOOOooooooOOOOOOoooooooooooooooooooooooooooooooooOOOOOOOOOOOOoooooooooooooooooooOOOOOO......",
"......OOOOOOooooooooooooooooooooooooooooooooooooooooooooooooooooooooooooooooooooooooooooOOOOOO......",
"......OOOOOOooooooooooooooooooooooooooooooooooooooooooooooooooooooooooooooooooooooooooooOOOOOO......",
"......OOOOOOooooooooooooooooooooooooooooooooooooooooooooooooooooooooooooooooooooooooooooOOOOOO......",
"......OOOOOOooooooooooooooooooooooooooooooooooooooooooooooooooooooooooooooooooooooooooooOOOOOO......",
"......OOOOOOooooooooooooooooooooooooooooooooooooooooooooooooooooooooooooooooooooooooooooOOOOOO......",
"......OOOOOOooooooooooooooooooooooooooooooooooooooooooooooooooooooooooooooooooooooooooooOOOOOO......",
"......OOOOOOooooooooooooXXXXXXXXXXXXXooooooooooooooooooooooooooooooooooooooOOOOOOOooooooOOOOOO......",
"......OOOOOOooooooooooooXXXXXXXXXXXXXooooooooooooooooooooooooooooooooooooooOOOOOOOooooooOOOOOO......",
"......OOOOOOooooooooooooXXXXXXXXXXXXXooooooooooooooooooooooooooooooooooooooOOOOOOOooooooOOOOOO......",
"......OOOOOOooooooooooooXXXXXXXXXXXXXooooooooooooooooooooooooooooooooooooooOOOOOOOooooooOOOOOO......",
"......OOOOOOooooooooooooXXXXXXXXXXXXXooooooooooooooooooooooooooooooooooooooOOOOOOOooooooOOOOOO......",
"......OOOOOOooooooooooooXXXXXXXXXXXXXooooooooooooooooooooooooooooooooooooooOOOOOOOooooooOOOOOO......",
"......OOOOOOooooooooooooXXXXXXXXXXXXXooooooooooooooooooooooooooooooooooooooOOOOOOOooooooOOOOOO......",
"......XXXXXXooooooooooooXXXXXXXXXXXXXooooooOOOOOOOOOOOOOOoooooooooooooooooooooooooooooooXXXXXX......",
"......XXXXXXooooooooooooXXXXXXXXXXXXXooooooOOOOOOOOOOOOOOoooooooooooooooooooooooooooooooXXXXXX......",
"......XXXXXXooooooooooooXXXXXXXXXXXXXooooooOOOOOOOOOOOOOOoooooooooooooooooooooooooooooooXXXXXX......",
"......XXXXXXooooooooooooXXXXXXXXXXXXXooooooOOOOOOOOOOOOOOoooooooooooooooooooooooooooooooXXXXXX......",
"......XXXXXXooooooooooooXXXXXXXXXXXXXooooooOOOOOOOOOOOOOOoooooooooooooooooooooooooooooooXXXXXX......",
"......XXXXXXooooooooooooXXXXXXXXXXXXXooooooOOOOOOOOOOOOOOoooooooooooooooooooooooooooooooXXXXXX......",
"......XXXXXXooooooooooooXXXXXXXXXXXXXooooooOOOOOOOOOOOOOOoooooooooooooooooooooooooooooooXXXXXX......",
"......XXXXXXoooooooooooooooooooooooooooooooOOOOOOOOOOOOOOoooooooooooooooooooooooooooooooXXXXXX......",
"......XXXXXXoooooooooooooooooooooooooooooooOOOOOOOOOOOOOOoooooooooooooooooooooooooooooooXXXXXX......",
"......XXXXXXoooooooooooooooooooooooooooooooOOOOOOOOOOOOOOoooooooooooooooooooooooooooooooXXXXXX......",
"......XXXXXXoooooooooooooooooooooooooooooooOOOOOOOOOOOOOOoooooooooooooooooooooooooooooooXXXXXX......",
"......XXXXXXoooooooooooooooooooooooooooooooOOOOOOOOOOOOOOoooooooooooooooooooooooooooooooXXXXXX......",
"......XXXXXXoooooooooooooooooooooooooooooooOOOOOOOOOOOOOOoooooooooooooooooooooooooooooooXXXXXX......",
"......XXXXXXooooooXXXXXXooooooooooooooooooooooooooooooooooooooooooooooooooooooooooXXXXXXXXXXXX......",
"......XXXXXXooooooXXXXXXooooooooooooooooooooooooooooooooooooooooooooooooooooooooooXXXXXXXXXXXX......",
"......XXXXXXooooooXXXXXXooooooooooooooooooooooooooooooooooooooooooooooooooooooooooXXXXXXXXXXXX......",
"......XXXXXXooooooXXXXXXooooooooooooooooooooooooooooooooooooooooooooooooooooooooooXXXXXXXXXXXX......",
"......XXXXXXooooooXXXXXXooooooooooooooooooooooooooooooooooooooooooooooooooooooooooXXXXXXXXXXXX......",
"......XXXXXXooooooXXXXXXooooooooooooooooooooooooooooooooooooooooooooooooooooooooooXXXXXXXXXXXX......",
"......XXXXXXoooooooooooooooooooooooooooooooooooooooooooooXXXXXXXXXXXXoooooooooooooooooooXXXXXX......",
"......XXXXXXoooooooooooooooooooooooooooooooooooooooooooooXXXXXXXXXXXXoooooooooooooooooooXXXXXX......",
"......XXXXXXoooooooooooooooooooooooooooooooooooooooooooooXXXXXXXXXXXXoooooooooooooooooooXXXXXX......",
"......XXXXXXoooooooooooooooooooooooooooooooooooooooooooooXXXXXXXXXXXXoooooooooooooooooooXXXXXX......",
"......XXXXXXoooooooooooooooooooooooooooooooooooooooooooooXXXXXXXXXXXXoooooooooooooooooooXXXXXX......",
"......XXXXXXoooooooooooooooooooooooooooooooooooooooooooooXXXXXXXXXXXXoooooooooooooooooooXXXXXX......",
"......XXXXXXooooooooooooXXXXXXXXXXXXXooooooooooooooooooooXXXXXXXXXXXXooooooXXXXXXXooooooXXXXXX......",
"......XXXXXXooooooooooooXXXXXXXXXXXXXooooooooooooooooooooXXXXXXXXXXXXooooooXXXXXXXooooooXXXXXX......",
"......XXXXXXooooooooooooXXXXXXXXXXXXXooooooooooooooooooooXXXXXXXXXXXXooooooXXXXXXXooooooXXXXXX......",
"......XXXXXXooooooooooooXXXXXXXXXXXXXooooooooooooooooooooXXXXXXXXXXXXooooooXXXXXXXooooooXXXXXX......",
"......XXXXXXooooooooooooXXXXXXXXXXXXXooooooooooooooooooooXXXXXXXXXXXXooooooXXXXXXXooooooXXXXXX......",
"......XXXXXXooooooooooooXXXXXXXXXXXXXooooooooooooooooooooXXXXXXXXXXXXooooooXXXXXXXooooooXXXXXX......",
"......XXXXXXooooooooooooXXXXXXXXXXXXXooooooooooooooooooooXXXXXXXXXXXXooooooXXXXXXXooooooXXXXXX......",
"......XXXXXXooooooooooooXXXXXXXXXXXXXoooooooooooooooooooooooooooooooooooooooooooooooooooXXXXXX......",
"......XXXXXXooooooooooooXXXXXXXXXXXXXoooooooooooooooooooooooooooooooooooooooooooooooooooXXXXXX......",
"......XXXXXXooooooooooooXXXXXXXXXXXXXoooooooooooooooooooooooooooooooooooooooooooooooooooXXXXXX......",
"......XXXXXXooooooooooooXXXXXXXXXXXXXoooooooooooooooooooooooooooooooooooooooooooooooooooXXXXXX......",
"......XXXXXXooooooooooooXXXXXXXXXXXXXoooooooooooooooooooooooooooooooooooooooooooooooooooXXXXXX......",
"......XXXXXXooooooooooooXXXXXXXXXXXXXoooooooooooooooooooooooooooooooooooooooooooooooooooXXXXXX......",
"      ......XXXXXXXXXXXXXXXXXXXXXXXXXXXXXXXXXXXXXXXXXXXXXXXXXXXXXXXXXXXXXXXXXXXXXXXXXXXX......      ",
"      ......XXXXXXXXXXXXXXXXXXXXXXXXXXXXXXXXXXXXXXXXXXXXXXXXXXXXXXXXXXXXXXXXXXXXXXXXXXXX......      ",
"      ......XXXXXXXXXXXXXXXXXXXXXXXXXXXXXXXXXXXXXXXXXXXXXXXXXXXXXXXXXXXXXXXXXXXXXXXXXXXX......      ",
"      ......XXXXXXXXXXXXXXXXXXXXXXXXXXXXXXXXXXXXXXXXXXXXXXXXXXXXXXXXXXXXXXXXXXXXXXXXXXXX......      ",
"      ......XXXXXXXXXXXXXXXXXXXXXXXXXXXXXXXXXXXXXXXXXXXXXXXXXXXXXXXXXXXXXXXXXXXXXXXXXXXX......      ",
"      ......XXXXXXXXXXXXXXXXXXXXXXXXXXXXXXXXXXXXXXXXXXXXXXXXXXXXXXXXXXXXXXXXXXXXXXXXXXXX......      ",
"            ............................................................................            ",
"            ............................................................................            ",
"            ............................................................................            ",
"            ............................................................................            ",
"            ............................................................................            ",
"            ............................................................................            "
};
